<svg xmlns="http://www.w3.org/2000/svg" id="canvas" viewBox="305.872 369.607 1285.570 240.493"><path d="M 389.10,377.20 C 388.18 376.10, 386.75 374.46, 383.59 373.57 C 380.43 372.67, 378.06 372.43, 373.31 372.73 C 368.56 373.03, 365.49 373.12, 359.84 375.06 C 354.20 376.99, 350.81 378.36, 345.09 382.40 C 339.36 386.45, 336.30 389.34, 331.21 395.28 C 326.11 401.23, 323.51 404.66, 319.62 412.14 C 315.72 419.63, 313.87 424.00, 311.72 432.71 C 309.57 441.42, 308.97 446.45, 308.88 455.70 C 308.80 464.96, 309.32 469.77, 311.30 478.97 C 313.28 488.17, 314.92 493.06, 318.79 501.70 C 322.66 510.35, 325.17 514.86, 330.64 522.21 C 336.11 529.55, 339.56 532.98, 346.15 538.44 C 352.74 543.90, 356.59 546.11, 363.58 549.52 C 370.57 552.93, 374.28 554.14, 381.09 555.48 C 387.89 556.83, 391.62 556.92, 397.61 556.25 C 403.59 555.57, 406.55 554.55, 411.01 552.10 C 415.48 549.65, 417.33 547.93, 419.94 543.98 C 422.55 540.03, 423.25 537.42, 424.08 532.35 C 424.91 527.28, 424.89 524.36, 424.08 518.64 C 423.27 512.92, 422.11 509.46, 420.03 503.75 C 417.94 498.04, 416.44 495.04, 413.65 490.09 C 410.86 485.15, 408.90 482.81, 406.07 479.03 C 403.24 475.25, 401.92 473.63, 399.48 471.17 C 397.04 468.71, 395.64 467.88, 393.87 466.73 C 392.11 465.59, 391.44 465.52, 390.64 465.45 C 389.85 465.39, 389.65 465.70, 389.91 466.43 C 390.17 467.16, 390.52 467.65, 391.92 469.11 C 393.33 470.57, 394.55 471.39, 396.92 473.74 C 399.29 476.08, 400.88 477.29, 403.77 480.83 C 406.66 484.36, 408.59 486.64, 411.36 491.40 C 414.13 496.17, 415.59 499.12, 417.61 504.64 C 419.63 510.16, 420.71 513.55, 421.47 519.01 C 422.23 524.46, 422.17 527.22, 421.42 531.92 C 420.67 536.63, 420.04 538.93, 417.72 542.53 C 415.40 546.14, 413.89 547.64, 409.81 549.95 C 405.74 552.25, 403.02 553.34, 397.34 554.07 C 391.67 554.79, 388.05 554.81, 381.45 553.58 C 374.85 552.36, 371.19 551.23, 364.34 547.95 C 357.48 544.67, 353.67 542.52, 347.18 537.19 C 340.69 531.85, 337.28 528.50, 331.88 521.28 C 326.48 514.06, 323.99 509.61, 320.18 501.08 C 316.36 492.56, 314.73 487.72, 312.79 478.65 C 310.85 469.58, 310.35 464.83, 310.45 455.72 C 310.56 446.61, 311.17 441.66, 313.31 433.11 C 315.46 424.56, 317.30 420.27, 321.17 412.96 C 325.05 405.65, 327.64 402.30, 332.68 396.56 C 337.72 390.82, 340.77 388.03, 346.37 384.25 C 351.97 380.48, 355.27 379.29, 360.68 377.67 C 366.10 376.05, 369.05 376.19, 373.44 376.15 C 377.83 376.10, 379.70 376.85, 382.65 377.43 C 385.60 378.02, 386.91 379.14, 388.20 379.09 C 389.49 379.04, 390.02 378.31, 389.10 377.20" style="stroke: black; fill: black;"/><path d="M 460.90,505.68 C 461.39 506.14, 461.93 506.15, 462.69 505.95 C 463.45 505.75, 463.84 505.45, 464.72 504.66 C 465.60 503.88, 466.14 503.57, 467.09 502.01 C 468.04 500.45, 468.77 499.25, 469.48 496.86 C 470.19 494.48, 470.46 492.95, 470.63 490.09 C 470.80 487.23, 470.69 485.60, 470.33 482.57 C 469.97 479.54, 469.87 477.76, 468.83 474.95 C 467.79 472.13, 467.01 470.42, 465.14 468.48 C 463.27 466.53, 461.98 465.74, 459.46 465.22 C 456.94 464.70, 455.13 464.58, 452.55 465.89 C 449.96 467.19, 448.49 468.53, 446.55 471.75 C 444.61 474.97, 443.82 477.31, 442.83 481.98 C 441.83 486.65, 441.43 489.39, 441.58 495.10 C 441.72 500.81, 442.20 504.22, 443.56 510.51 C 444.92 516.80, 445.96 520.51, 448.38 526.53 C 450.81 532.55, 452.36 535.78, 455.69 540.60 C 459.03 545.41, 461.07 547.60, 465.06 550.62 C 469.04 553.64, 471.39 554.74, 475.62 555.70 C 479.85 556.65, 482.12 556.55, 486.20 555.38 C 490.27 554.21, 492.53 552.55, 495.99 549.87 C 499.45 547.18, 501.10 544.91, 503.52 541.96 C 505.94 539.01, 506.86 537.57, 508.08 535.10 C 509.31 532.62, 509.64 530.85, 509.64 529.59 C 509.65 528.33, 509.09 528.12, 508.11 528.82 C 507.13 529.52, 506.28 530.96, 504.74 533.09 C 503.20 535.23, 502.62 536.68, 500.43 539.49 C 498.24 542.30, 496.81 544.57, 493.78 547.14 C 490.75 549.71, 488.78 551.20, 485.27 552.34 C 481.76 553.49, 479.96 553.62, 476.24 552.85 C 472.51 552.08, 470.35 551.23, 466.64 548.49 C 462.94 545.76, 460.91 543.77, 457.70 539.20 C 454.49 534.63, 452.94 531.48, 450.60 525.64 C 448.26 519.80, 447.24 516.11, 446.00 510.00 C 444.76 503.88, 444.37 500.52, 444.41 495.07 C 444.44 489.63, 445.02 487.00, 446.17 482.79 C 447.33 478.57, 448.50 476.62, 450.19 474.02 C 451.88 471.41, 452.92 470.72, 454.61 469.75 C 456.30 468.77, 457.21 468.79, 458.62 469.12 C 460.04 469.45, 460.67 469.89, 461.70 471.38 C 462.74 472.87, 463.15 474.23, 463.78 476.58 C 464.42 478.93, 464.66 480.51, 464.88 483.12 C 465.09 485.73, 465.12 487.24, 464.87 489.63 C 464.62 492.02, 464.23 493.14, 463.62 495.06 C 463.00 496.99, 462.36 497.93, 461.80 499.25 C 461.25 500.57, 461.10 500.99, 460.84 501.68 C 460.58 502.37, 460.62 502.31, 460.50 502.71 C 460.38 503.10, 460.16 503.06, 460.24 503.65 C 460.32 504.25, 460.41 505.22, 460.90 505.68" style="stroke: black; fill: black;"/><path d="M 508.62,489.12 C 508.39 490.70, 508.94 492.77, 509.52 496.60 C 510.09 500.43, 510.57 503.07, 511.51 508.27 C 512.46 513.47, 513.24 517.18, 514.25 522.60 C 515.26 528.03, 515.93 530.91, 516.56 535.40 C 517.19 539.89, 516.78 542.30, 517.41 545.05 C 518.04 547.80, 518.79 548.72, 519.70 549.16 C 520.61 549.59, 521.31 549.15, 521.95 547.21 C 522.60 545.27, 522.46 543.62, 522.92 539.46 C 523.38 535.31, 523.51 532.13, 524.23 526.44 C 524.96 520.75, 525.32 516.82, 526.55 511.02 C 527.77 505.23, 528.50 502.10, 530.36 497.47 C 532.21 492.85, 533.54 490.77, 535.81 487.91 C 538.09 485.05, 539.45 484.15, 541.74 483.17 C 544.02 482.18, 544.86 482.13, 547.24 482.99 C 549.63 483.85, 551.06 484.68, 553.67 487.48 C 556.28 490.27, 557.81 492.35, 560.29 496.97 C 562.77 501.59, 563.91 504.77, 566.06 510.57 C 568.20 516.36, 569.23 520.14, 571.03 525.95 C 572.82 531.76, 573.61 534.96, 575.05 539.61 C 576.48 544.25, 577.05 546.44, 578.21 549.16 C 579.37 551.89, 580.10 552.52, 580.85 553.25 C 581.61 553.98, 581.94 553.82, 581.99 552.80 C 582.05 551.77, 581.97 550.93, 581.13 548.11 C 580.30 545.30, 579.36 543.30, 577.83 538.71 C 576.31 534.13, 575.37 530.98, 573.51 525.17 C 571.66 519.36, 570.67 515.57, 568.55 509.66 C 566.44 503.74, 565.41 500.49, 562.95 495.59 C 560.48 490.69, 559.12 488.37, 556.22 485.15 C 553.32 481.92, 551.62 480.53, 548.45 479.48 C 545.27 478.44, 543.35 478.61, 540.34 479.92 C 537.32 481.22, 535.88 482.70, 533.36 486.00 C 530.85 489.31, 529.68 491.56, 527.76 496.44 C 525.85 501.33, 525.16 504.51, 523.80 510.41 C 522.44 516.32, 521.94 520.23, 520.95 525.95 C 519.96 531.67, 519.31 534.82, 518.85 539.02 C 518.39 543.21, 518.31 544.97, 518.64 546.94 C 518.96 548.91, 519.93 549.34, 520.48 548.85 C 521.04 548.36, 521.54 547.29, 521.40 544.50 C 521.27 541.70, 520.62 539.37, 519.80 534.88 C 518.98 530.38, 518.32 527.47, 517.30 522.03 C 516.27 516.60, 515.57 512.92, 514.69 507.71 C 513.80 502.51, 513.65 499.80, 512.85 496.00 C 512.05 492.19, 511.53 490.07, 510.69 488.70 C 509.84 487.32, 508.86 487.54, 508.62 489.12" style="stroke: black; fill: black;"/><path d="M 616.87,520.17 C 617.56 521.02, 618.76 521.82, 620.75 522.23 C 622.74 522.63, 624.22 522.71, 626.84 522.19 C 629.46 521.67, 631.27 521.47, 633.87 519.63 C 636.47 517.80, 637.84 516.15, 639.85 513.02 C 641.87 509.88, 642.82 507.80, 643.96 503.96 C 645.09 500.12, 645.38 497.73, 645.53 493.82 C 645.69 489.90, 645.70 487.78, 644.73 484.39 C 643.76 481.01, 642.92 479.22, 640.67 476.89 C 638.42 474.56, 636.60 473.50, 633.47 472.75 C 630.35 472.00, 628.30 472.03, 625.03 473.14 C 621.76 474.25, 619.87 475.52, 617.13 478.29 C 614.38 481.05, 613.03 482.96, 611.30 486.96 C 609.58 490.96, 608.96 493.45, 608.51 498.29 C 608.05 503.13, 608.15 506.01, 609.03 511.14 C 609.91 516.27, 610.80 519.09, 612.93 523.94 C 615.06 528.78, 616.51 531.38, 619.69 535.38 C 622.88 539.37, 624.77 541.27, 628.85 543.91 C 632.93 546.55, 635.46 547.56, 640.09 548.57 C 644.72 549.57, 647.28 549.66, 652.02 548.93 C 656.77 548.20, 659.29 547.17, 663.81 544.91 C 668.33 542.64, 670.65 541.17, 674.62 537.60 C 678.59 534.04, 680.59 531.23, 683.67 527.08 C 686.75 522.93, 688.15 520.36, 690.02 516.84 C 691.90 513.33, 692.76 511.12, 693.05 509.48 C 693.33 507.85, 692.60 507.51, 691.46 508.68 C 690.33 509.85, 689.42 512.00, 687.37 515.32 C 685.32 518.64, 684.16 521.25, 681.23 525.28 C 678.30 529.32, 676.44 532.07, 672.70 535.48 C 668.96 538.90, 666.75 540.24, 662.53 542.35 C 658.30 544.45, 655.94 545.35, 651.58 546.02 C 647.21 546.69, 644.94 546.61, 640.71 545.70 C 636.47 544.80, 634.17 543.91, 630.41 541.49 C 626.65 539.07, 624.88 537.36, 621.91 533.62 C 618.93 529.88, 617.54 527.39, 615.55 522.79 C 613.56 518.20, 612.73 515.49, 611.96 510.66 C 611.19 505.82, 611.17 503.07, 611.70 498.63 C 612.22 494.18, 612.92 491.92, 614.57 488.43 C 616.22 484.94, 617.57 483.39, 619.94 481.17 C 622.31 478.94, 623.92 478.12, 626.42 477.30 C 628.92 476.48, 630.23 476.52, 632.45 477.05 C 634.68 477.57, 635.89 478.23, 637.55 479.92 C 639.21 481.62, 639.96 482.79, 640.74 485.53 C 641.53 488.28, 641.63 490.21, 641.48 493.65 C 641.33 497.09, 641.05 499.38, 639.98 502.75 C 638.91 506.11, 637.93 507.98, 636.12 510.47 C 634.31 512.96, 632.99 513.91, 630.91 515.21 C 628.83 516.50, 627.71 516.49, 625.72 516.95 C 623.74 517.41, 622.68 517.31, 621.00 517.52 C 619.32 517.73, 618.15 517.48, 617.32 518.01 C 616.50 518.53, 616.18 519.33, 616.87 520.17" style="stroke: black; fill: black;"/><path d="M 696.39,500.14 C 696.26 501.69, 697.00 503.70, 697.80 507.25 C 698.60 510.81, 699.38 513.39, 700.40 517.92 C 701.41 522.45, 702.06 525.73, 702.86 529.91 C 703.65 534.10, 703.68 536.32, 704.36 538.86 C 705.04 541.40, 705.61 542.16, 706.26 542.62 C 706.91 543.09, 707.50 542.91, 707.59 541.17 C 707.69 539.44, 707.27 537.96, 706.74 533.95 C 706.21 529.94, 705.51 526.65, 704.95 521.10 C 704.39 515.55, 703.94 512.09, 703.94 506.22 C 703.95 500.34, 704.08 496.79, 704.99 491.73 C 705.90 486.68, 706.73 484.39, 708.51 480.94 C 710.30 477.49, 711.25 476.28, 713.91 474.46 C 716.57 472.64, 718.24 472.39, 721.79 471.85 C 725.35 471.30, 727.62 471.40, 731.69 471.74 C 735.76 472.08, 738.14 472.60, 742.16 473.55 C 746.17 474.49, 748.23 475.31, 751.77 476.46 C 755.31 477.60, 756.94 478.23, 759.86 479.26 C 762.78 480.29, 764.17 480.72, 766.37 481.60 C 768.58 482.48, 769.46 482.62, 770.87 483.67 C 772.27 484.72, 772.55 485.10, 773.38 486.83 C 774.21 488.55, 774.24 489.56, 775.03 492.30 C 775.81 495.04, 776.50 496.72, 777.29 500.53 C 778.08 504.34, 778.33 506.80, 778.97 511.35 C 779.62 515.89, 779.91 518.74, 780.51 523.27 C 781.11 527.80, 781.50 530.47, 781.96 533.99 C 782.42 537.50, 782.35 538.88, 782.81 540.84 C 783.26 542.79, 783.79 543.26, 784.22 543.78 C 784.65 544.30, 784.87 543.50, 784.97 543.44 C 785.08 543.37, 784.64 543.40, 784.76 543.45 C 784.87 543.50, 785.17 544.29, 785.54 543.70 C 785.91 543.11, 786.52 542.53, 786.60 540.48 C 786.67 538.43, 786.44 536.98, 785.92 533.44 C 785.40 529.90, 784.69 527.28, 784.02 522.77 C 783.34 518.26, 783.08 515.48, 782.54 510.89 C 782.00 506.30, 781.90 503.81, 781.33 499.82 C 780.76 495.84, 780.53 493.98, 779.68 490.97 C 778.83 487.97, 778.35 486.87, 777.07 484.79 C 775.79 482.70, 775.09 481.99, 773.29 480.55 C 771.48 479.11, 770.47 478.63, 768.05 477.59 C 765.62 476.54, 764.20 476.25, 761.16 475.31 C 758.12 474.37, 756.50 473.94, 752.86 472.88 C 749.22 471.83, 747.14 470.99, 742.96 470.05 C 738.78 469.11, 736.32 468.52, 731.97 468.20 C 727.62 467.89, 725.20 467.73, 721.22 468.46 C 717.24 469.19, 715.13 469.63, 712.07 471.86 C 709.00 474.08, 707.85 475.73, 705.89 479.60 C 703.94 483.48, 703.24 485.93, 702.28 491.25 C 701.32 496.56, 701.26 500.16, 701.12 506.18 C 700.97 512.20, 701.28 515.68, 701.56 521.35 C 701.84 527.03, 701.91 530.42, 702.51 534.54 C 703.12 538.66, 703.61 540.30, 704.58 541.95 C 705.55 543.60, 706.54 543.54, 707.36 542.79 C 708.19 542.04, 708.83 540.94, 708.71 538.20 C 708.59 535.46, 707.70 533.33, 706.77 529.11 C 705.83 524.89, 705.11 521.65, 704.03 517.09 C 702.96 512.52, 702.50 509.80, 701.38 506.28 C 700.26 502.76, 699.43 500.73, 698.43 499.50 C 697.44 498.28, 696.52 498.59, 696.39 500.14" style="stroke: black; fill: black;"/><path d="M 768.45,423.10 C 768.30 423.66, 768.91 424.29, 769.48 424.14 C 770.04 424.00, 771.11 422.94, 771.27 422.38 C 771.42 421.82, 770.80 421.19, 770.24 421.34 C 769.68 421.48, 768.60 422.54, 768.45 423.10" style="stroke: black; fill: black;"/><path d="M 851.75,463.38 C 850.68 463.27, 849.69 463.44, 847.37 464.48 C 845.06 465.53, 843.21 466.26, 840.16 468.61 C 837.11 470.95, 835.08 472.61, 832.13 476.23 C 829.17 479.84, 827.51 482.20, 825.36 486.69 C 823.22 491.19, 822.17 493.77, 821.39 498.70 C 820.61 503.64, 820.67 506.38, 821.47 511.38 C 822.26 516.38, 823.00 519.25, 825.36 523.70 C 827.72 528.15, 829.48 530.31, 833.28 533.63 C 837.08 536.96, 839.49 538.31, 844.37 540.31 C 849.25 542.31, 852.31 543.10, 857.70 543.64 C 863.09 544.18, 866.26 544.11, 871.32 543.01 C 876.38 541.91, 878.99 540.43, 883.00 538.14 C 887.01 535.85, 888.96 534.10, 891.38 531.58 C 893.80 529.05, 894.64 526.94, 895.11 525.51 C 895.58 524.08, 894.92 523.70, 893.72 524.44 C 892.51 525.17, 891.54 527.00, 889.08 529.20 C 886.62 531.40, 885.09 533.22, 881.42 535.42 C 877.74 537.63, 875.38 539.13, 870.69 540.22 C 866.01 541.31, 863.02 541.38, 857.97 540.88 C 852.91 540.39, 849.98 539.63, 845.42 537.76 C 840.85 535.89, 838.64 534.60, 835.13 531.52 C 831.62 528.45, 830.05 526.48, 827.88 522.37 C 825.72 518.25, 825.03 515.57, 824.31 510.94 C 823.59 506.30, 823.52 503.75, 824.30 499.18 C 825.09 494.62, 826.09 492.22, 828.22 488.11 C 830.35 484.01, 832.02 481.84, 834.94 478.66 C 837.85 475.47, 839.86 474.24, 842.80 472.20 C 845.74 470.15, 847.65 469.86, 849.64 468.43 C 851.63 467.01, 852.33 466.07, 852.76 465.06 C 853.18 464.05, 852.83 463.50, 851.75 463.38" style="stroke: black; fill: black;"/><path d="M 918.14,384.84 C 917.61 386.21, 917.79 388.14, 917.63 391.54 C 917.47 394.95, 917.39 397.68, 917.34 401.86 C 917.30 406.03, 917.21 409.00, 917.41 412.42 C 917.61 415.85, 917.81 417.67, 918.35 419.00 C 918.90 420.33, 919.52 420.36, 920.15 419.06 C 920.79 417.75, 921.22 415.91, 921.51 412.48 C 921.81 409.05, 921.58 406.10, 921.62 401.90 C 921.66 397.70, 921.98 394.92, 921.71 391.47 C 921.44 388.03, 920.98 386.02, 920.26 384.69 C 919.55 383.36, 918.66 383.47, 918.14 384.84" style="stroke: black; fill: black;"/><path d="M 1016.08,479.10 C 1015.00 478.33, 1013.37 477.86, 1010.51 477.34 C 1007.66 476.83, 1005.62 476.71, 1001.81 476.54 C 998.01 476.37, 995.25 476.34, 991.48 476.51 C 987.72 476.68, 985.81 476.50, 982.98 477.38 C 980.16 478.27, 978.67 479.03, 977.36 480.94 C 976.06 482.85, 975.66 484.38, 976.44 486.93 C 977.23 489.47, 978.46 490.83, 981.27 493.66 C 984.09 496.50, 986.40 497.99, 990.54 501.10 C 994.67 504.20, 997.33 505.86, 1001.96 509.20 C 1006.58 512.55, 1009.38 514.46, 1013.68 517.82 C 1017.97 521.17, 1020.34 522.92, 1023.44 525.97 C 1026.53 529.02, 1027.64 530.47, 1029.13 533.06 C 1030.62 535.65, 1030.86 536.79, 1030.89 538.90 C 1030.92 541.02, 1030.57 541.92, 1029.29 543.63 C 1028.01 545.34, 1027.03 545.94, 1024.51 547.45 C 1021.98 548.96, 1020.22 549.81, 1016.66 551.19 C 1013.09 552.57, 1010.94 553.36, 1006.68 554.36 C 1002.42 555.37, 999.62 555.61, 995.36 556.22 C 991.10 556.82, 988.67 556.92, 985.38 557.37 C 982.09 557.81, 980.80 558.00, 978.91 558.43 C 977.01 558.86, 976.58 559.22, 975.89 559.52 C 975.19 559.83, 975.56 559.79, 975.42 559.95 C 975.28 560.11, 975.12 560.04, 975.20 560.33 C 975.27 560.61, 974.96 560.99, 975.78 561.38 C 976.61 561.76, 977.27 562.25, 979.31 562.27 C 981.34 562.29, 982.64 561.97, 985.96 561.48 C 989.28 561.00, 991.61 560.54, 995.92 559.83 C 1000.22 559.11, 1003.07 558.88, 1007.49 557.90 C 1011.91 556.91, 1014.16 556.23, 1018.01 554.89 C 1021.87 553.55, 1023.85 553.00, 1026.78 551.21 C 1029.71 549.42, 1031.11 548.41, 1032.68 545.93 C 1034.24 543.44, 1034.71 541.73, 1034.60 538.80 C 1034.50 535.87, 1033.96 534.28, 1032.15 531.28 C 1030.33 528.28, 1028.89 526.92, 1025.54 523.78 C 1022.19 520.65, 1019.77 518.98, 1015.40 515.60 C 1011.03 512.22, 1008.23 510.30, 1003.68 506.87 C 999.12 503.43, 996.52 501.66, 992.62 498.44 C 988.73 495.23, 986.72 493.37, 984.19 490.79 C 981.65 488.20, 980.85 487.10, 979.95 485.50 C 979.05 483.91, 978.87 483.54, 979.69 482.81 C 980.51 482.08, 981.63 482.19, 984.03 481.85 C 986.43 481.51, 988.17 481.27, 991.68 481.12 C 995.20 480.98, 997.93 480.95, 1001.61 481.12 C 1005.28 481.29, 1007.22 481.96, 1010.08 481.98 C 1012.93 482.01, 1014.69 481.82, 1015.89 481.24 C 1017.09 480.67, 1017.15 479.88, 1016.08 479.10" style="stroke: black; fill: black;"/><path d="M 1189.33,476.89 C 1188.90 478.02, 1188.88 479.10, 1189.08 482.31 C 1189.29 485.51, 1189.72 487.58, 1190.37 492.92 C 1191.03 498.25, 1191.53 501.72, 1192.36 508.99 C 1193.18 516.25, 1193.55 520.77, 1194.50 529.22 C 1195.46 537.68, 1196.21 542.59, 1197.14 551.25 C 1198.07 559.92, 1198.45 564.67, 1199.16 572.55 C 1199.88 580.44, 1200.38 584.72, 1200.70 590.68 C 1201.01 596.65, 1200.61 599.22, 1200.74 602.37 C 1200.87 605.52, 1201.25 606.44, 1201.35 606.44 C 1201.45 606.43, 1201.61 605.53, 1201.24 602.35 C 1200.86 599.16, 1199.95 596.45, 1199.46 590.51 C 1198.97 584.56, 1198.86 580.59, 1198.77 572.63 C 1198.67 564.67, 1198.65 559.68, 1198.97 550.71 C 1199.30 541.74, 1199.53 536.54, 1200.39 527.78 C 1201.24 519.02, 1201.73 514.55, 1203.26 506.91 C 1204.78 499.28, 1205.76 495.62, 1208.01 489.60 C 1210.25 483.58, 1211.74 480.88, 1214.48 476.82 C 1217.21 472.75, 1218.73 471.23, 1221.67 469.29 C 1224.61 467.35, 1226.27 467.07, 1229.18 467.11 C 1232.08 467.15, 1233.47 467.49, 1236.19 469.50 C 1238.92 471.52, 1240.54 473.31, 1242.81 477.20 C 1245.09 481.09, 1246.44 483.81, 1247.55 488.94 C 1248.67 494.07, 1248.86 497.31, 1248.38 502.86 C 1247.91 508.41, 1247.13 511.64, 1245.17 516.69 C 1243.21 521.74, 1241.72 524.31, 1238.59 528.12 C 1235.45 531.93, 1233.28 533.49, 1229.47 535.73 C 1225.67 537.98, 1223.30 538.54, 1219.54 539.35 C 1215.77 540.15, 1213.56 539.67, 1210.65 539.76 C 1207.73 539.85, 1206.66 539.84, 1204.96 539.79 C 1203.26 539.75, 1202.81 539.36, 1202.15 539.53 C 1201.49 539.71, 1201.21 540.01, 1201.66 540.67 C 1202.10 541.32, 1202.54 542.13, 1204.36 542.80 C 1206.18 543.46, 1207.54 544.01, 1210.74 543.97 C 1213.94 543.93, 1216.31 543.76, 1220.35 542.61 C 1224.40 541.45, 1226.92 540.76, 1230.98 538.20 C 1235.04 535.64, 1237.33 533.92, 1240.65 529.81 C 1243.97 525.69, 1245.51 522.97, 1247.58 517.62 C 1249.65 512.28, 1250.46 508.95, 1251.01 503.09 C 1251.57 497.24, 1251.45 493.86, 1250.36 488.36 C 1249.27 482.87, 1248.00 479.94, 1245.56 475.63 C 1243.13 471.31, 1241.46 469.14, 1238.18 466.78 C 1234.91 464.42, 1232.81 463.80, 1229.19 463.83 C 1225.56 463.85, 1223.39 464.56, 1220.05 466.90 C 1216.70 469.24, 1215.26 471.11, 1212.47 475.51 C 1209.69 479.91, 1208.32 482.70, 1206.12 488.91 C 1203.93 495.13, 1203.00 498.83, 1201.51 506.57 C 1200.02 514.31, 1199.55 518.80, 1198.67 527.61 C 1197.80 536.42, 1197.57 541.63, 1197.15 550.63 C 1196.73 559.63, 1196.67 564.62, 1196.56 572.63 C 1196.45 580.64, 1196.33 584.60, 1196.59 590.69 C 1196.84 596.77, 1196.89 599.77, 1197.85 603.05 C 1198.82 606.33, 1200.26 607.21, 1201.42 607.09 C 1202.58 606.97, 1203.35 605.76, 1203.66 602.45 C 1203.96 599.14, 1203.47 596.54, 1202.94 590.53 C 1202.42 584.51, 1201.83 580.27, 1201.03 572.37 C 1200.22 564.48, 1199.83 559.73, 1198.91 551.06 C 1197.99 542.39, 1197.27 537.48, 1196.43 529.02 C 1195.58 520.56, 1195.30 516.03, 1194.70 508.76 C 1194.09 501.48, 1193.77 497.99, 1193.39 492.63 C 1193.01 487.26, 1193.24 485.13, 1192.80 481.93 C 1192.36 478.74, 1191.90 477.66, 1191.20 476.66 C 1190.51 475.65, 1189.75 475.76, 1189.33 476.89" style="stroke: black; fill: black;"/><path d="M 1278.88,467.68 C 1279.16 469.68, 1280.64 472.23, 1282.27 476.89 C 1283.91 481.56, 1285.27 484.73, 1287.07 491.00 C 1288.87 497.27, 1290.03 501.84, 1291.29 508.23 C 1292.55 514.62, 1292.72 518.01, 1293.37 522.94 C 1294.03 527.87, 1294.03 530.08, 1294.57 532.88 C 1295.12 535.68, 1295.57 536.16, 1296.09 536.95 C 1296.61 537.73, 1296.88 537.69, 1297.17 536.80 C 1297.46 535.91, 1297.74 535.34, 1297.54 532.49 C 1297.34 529.64, 1296.92 527.50, 1296.18 522.54 C 1295.44 517.59, 1295.16 514.17, 1293.84 507.72 C 1292.52 501.27, 1291.38 496.63, 1289.58 490.29 C 1287.77 483.94, 1286.53 480.66, 1284.79 475.98 C 1283.05 471.30, 1282.05 468.55, 1280.87 466.89 C 1279.69 465.23, 1278.60 465.68, 1278.88 467.68" style="stroke: black; fill: black;"/><path d="M 1278.71,413.77 C 1279.39 414.38, 1280.48 414.68, 1281.53 414.56 C 1282.57 414.44, 1283.21 413.84, 1283.93 413.16 C 1284.65 412.48, 1285.02 411.99, 1285.11 411.18 C 1285.20 410.36, 1285.06 409.63, 1284.38 409.08 C 1283.71 408.53, 1282.73 408.31, 1281.75 408.42 C 1280.76 408.53, 1280.18 409.00, 1279.45 409.62 C 1278.73 410.25, 1278.25 410.70, 1278.11 411.53 C 1277.96 412.36, 1278.02 413.17, 1278.71 413.77" style="stroke: black; fill: black;"/><path d="M 1333.84,437.56 C 1334.70 438.11, 1335.93 438.02, 1337.77 438.17 C 1339.62 438.33, 1340.82 438.12, 1343.06 438.34 C 1345.31 438.55, 1346.69 438.45, 1348.99 439.24 C 1351.30 440.02, 1352.40 440.39, 1354.60 442.28 C 1356.80 444.17, 1358.03 445.21, 1360.00 448.67 C 1361.96 452.13, 1363.10 454.51, 1364.42 459.58 C 1365.73 464.65, 1366.13 467.93, 1366.56 474.02 C 1367.00 480.11, 1366.93 483.75, 1366.58 490.05 C 1366.23 496.35, 1365.69 499.78, 1364.80 505.51 C 1363.90 511.24, 1363.07 513.99, 1362.11 518.69 C 1361.14 523.40, 1360.21 525.55, 1359.97 529.04 C 1359.72 532.53, 1359.81 533.97, 1360.89 536.13 C 1361.97 538.29, 1363.11 539.00, 1365.37 539.84 C 1367.63 540.68, 1369.18 540.74, 1372.19 540.33 C 1375.19 539.92, 1376.99 538.88, 1380.42 537.80 C 1383.84 536.72, 1385.93 536.03, 1389.31 534.93 C 1392.69 533.83, 1394.81 533.28, 1397.32 532.29 C 1399.83 531.31, 1400.60 530.74, 1401.87 530.01 C 1403.13 529.29, 1403.26 529.07, 1403.63 528.67 C 1403.99 528.27, 1403.82 528.13, 1403.68 528.01 C 1403.54 527.89, 1402.82 527.81, 1402.94 528.07 C 1403.05 528.32, 1403.87 529.33, 1404.25 529.30 C 1404.63 529.27, 1405.02 528.46, 1404.85 527.92 C 1404.67 527.37, 1404.19 526.82, 1403.38 526.57 C 1402.56 526.31, 1402.30 526.43, 1400.76 526.62 C 1399.22 526.81, 1398.27 526.74, 1395.68 527.50 C 1393.09 528.27, 1391.15 529.29, 1387.81 530.43 C 1384.48 531.56, 1382.33 532.21, 1379.01 533.18 C 1375.69 534.15, 1373.78 534.64, 1371.22 535.30 C 1368.65 535.97, 1367.70 536.59, 1366.19 536.51 C 1364.69 536.42, 1364.23 536.31, 1363.68 534.87 C 1363.13 533.42, 1363.21 532.43, 1363.45 529.29 C 1363.69 526.16, 1364.13 523.89, 1364.89 519.21 C 1365.65 514.52, 1366.44 511.68, 1367.26 505.88 C 1368.08 500.07, 1368.63 496.59, 1369.01 490.19 C 1369.38 483.79, 1369.49 480.12, 1369.15 473.86 C 1368.80 467.60, 1368.50 464.25, 1367.29 458.88 C 1366.08 453.52, 1365.04 450.97, 1363.10 447.03 C 1361.15 443.09, 1359.99 441.72, 1357.57 439.18 C 1355.14 436.64, 1353.80 435.63, 1350.99 434.33 C 1348.18 433.03, 1346.24 432.87, 1343.50 432.70 C 1340.76 432.52, 1339.30 432.90, 1337.29 433.45 C 1335.29 433.99, 1334.15 434.59, 1333.46 435.42 C 1332.77 436.24, 1332.98 437.01, 1333.84 437.56" style="stroke: black; fill: black;"/><path d="M 1357.26,490.32 C 1358.88 490.75, 1361.23 490.59, 1365.15 490.29 C 1369.07 489.99, 1371.84 489.64, 1376.85 488.81 C 1381.87 487.98, 1384.98 487.27, 1390.23 486.16 C 1395.48 485.05, 1400.62 484.35, 1403.09 483.26 C 1405.56 482.18, 1405.26 480.76, 1402.57 480.74 C 1399.88 480.72, 1394.88 482.21, 1389.64 483.18 C 1384.40 484.15, 1381.32 484.86, 1376.35 485.60 C 1371.38 486.34, 1368.64 486.36, 1364.79 486.88 C 1360.93 487.39, 1358.58 487.49, 1357.08 488.18 C 1355.57 488.87, 1355.65 489.90, 1357.26 490.32" style="stroke: black; fill: black;"/><path d="M 1437.28,482.55 C 1437.86 483.37, 1438.84 483.86, 1440.60 484.57 C 1442.36 485.29, 1443.83 485.52, 1446.08 486.11 C 1448.34 486.70, 1449.60 486.75, 1451.88 487.52 C 1454.15 488.29, 1455.44 488.70, 1457.45 489.96 C 1459.45 491.22, 1460.24 491.89, 1461.90 493.82 C 1463.57 495.75, 1464.31 496.79, 1465.78 499.60 C 1467.25 502.41, 1468.23 504.44, 1469.26 507.88 C 1470.28 511.31, 1470.70 513.30, 1470.93 516.77 C 1471.16 520.24, 1471.04 522.04, 1470.40 525.22 C 1469.77 528.40, 1469.20 530.11, 1467.74 532.67 C 1466.29 535.23, 1465.13 536.22, 1463.13 538.02 C 1461.13 539.82, 1459.70 540.35, 1457.73 541.69 C 1455.76 543.03, 1454.43 543.53, 1453.26 544.71 C 1452.09 545.90, 1451.82 546.60, 1451.88 547.60 C 1451.94 548.60, 1452.41 549.17, 1453.56 549.72 C 1454.71 550.28, 1455.55 550.41, 1457.62 550.38 C 1459.70 550.36, 1461.07 549.94, 1463.94 549.58 C 1466.81 549.23, 1468.36 548.67, 1471.99 548.60 C 1475.61 548.53, 1478.12 548.74, 1482.06 549.24 C 1485.99 549.73, 1488.42 550.69, 1491.65 551.08 C 1494.87 551.47, 1496.47 551.50, 1498.19 551.17 C 1499.92 550.85, 1499.91 549.96, 1500.27 549.46 C 1500.63 548.96, 1500.38 548.91, 1499.99 548.68 C 1499.60 548.45, 1499.83 548.78, 1498.31 548.32 C 1496.80 547.85, 1495.57 547.03, 1492.42 546.37 C 1489.27 545.71, 1486.62 545.47, 1482.56 545.02 C 1478.49 544.56, 1475.91 544.34, 1472.10 544.08 C 1468.29 543.83, 1466.56 543.66, 1463.50 543.76 C 1460.43 543.85, 1458.82 543.98, 1456.78 544.55 C 1454.73 545.12, 1454.04 545.88, 1453.28 546.61 C 1452.51 547.34, 1452.51 547.87, 1452.95 548.20 C 1453.38 548.53, 1453.94 548.73, 1455.45 548.27 C 1456.95 547.81, 1458.29 547.27, 1460.47 545.89 C 1462.65 544.51, 1464.17 543.62, 1466.37 541.38 C 1468.56 539.13, 1469.86 537.75, 1471.45 534.67 C 1473.04 531.59, 1473.62 529.62, 1474.32 525.99 C 1475.01 522.36, 1475.13 520.38, 1474.93 516.53 C 1474.72 512.68, 1474.32 510.51, 1473.29 506.72 C 1472.25 502.94, 1471.28 500.81, 1469.75 497.61 C 1468.21 494.42, 1467.49 493.12, 1465.59 490.76 C 1463.70 488.40, 1462.61 487.51, 1460.26 485.81 C 1457.92 484.12, 1456.44 483.36, 1453.87 482.29 C 1451.30 481.21, 1449.87 480.94, 1447.39 480.44 C 1444.92 479.93, 1443.46 479.77, 1441.51 479.78 C 1439.56 479.79, 1438.50 479.93, 1437.65 480.49 C 1436.81 481.04, 1436.69 481.73, 1437.28 482.55" style="stroke: black; fill: black;"/><path d="M 1488.45,523.27 C 1489.15 523.24, 1489.36 522.83, 1489.75 522.49 C 1490.14 522.15, 1490.00 522.01, 1490.40 521.56 C 1490.79 521.12, 1490.95 520.95, 1491.71 520.24 C 1492.48 519.53, 1492.95 519.07, 1494.21 518.02 C 1495.47 516.97, 1496.16 516.46, 1498.01 514.98 C 1499.87 513.51, 1500.99 512.38, 1503.48 510.65 C 1505.97 508.93, 1507.45 507.93, 1510.47 506.35 C 1513.49 504.77, 1515.17 503.97, 1518.58 502.74 C 1521.99 501.51, 1523.89 500.87, 1527.52 500.20 C 1531.16 499.53, 1533.12 499.47, 1536.74 499.39 C 1540.36 499.32, 1542.08 499.37, 1545.63 499.84 C 1549.18 500.30, 1550.96 500.66, 1554.48 501.71 C 1558.00 502.77, 1560.02 503.68, 1563.23 505.09 C 1566.45 506.51, 1567.93 507.38, 1570.57 508.78 C 1573.21 510.17, 1574.29 511.10, 1576.43 512.08 C 1578.58 513.06, 1579.77 513.65, 1581.30 513.67 C 1582.82 513.68, 1583.53 513.31, 1584.08 512.16 C 1584.63 511.00, 1584.76 510.05, 1584.05 507.88 C 1583.34 505.72, 1582.62 504.12, 1580.53 501.32 C 1578.44 498.53, 1576.61 496.65, 1573.60 493.91 C 1570.59 491.17, 1569.02 489.47, 1565.49 487.63 C 1561.95 485.80, 1559.83 484.92, 1555.93 484.71 C 1552.03 484.51, 1549.74 484.99, 1545.97 486.59 C 1542.20 488.19, 1540.31 489.61, 1537.08 492.71 C 1533.85 495.81, 1532.24 497.93, 1529.82 502.08 C 1527.41 506.22, 1526.36 508.92, 1524.99 513.43 C 1523.63 517.94, 1523.19 520.37, 1523.01 524.65 C 1522.83 528.93, 1523.03 531.19, 1524.10 534.84 C 1525.17 538.49, 1525.98 540.38, 1528.36 542.90 C 1530.73 545.42, 1532.61 546.47, 1535.97 547.43 C 1539.33 548.40, 1541.51 548.55, 1545.15 547.72 C 1548.80 546.90, 1550.64 545.93, 1554.18 543.33 C 1557.73 540.72, 1559.63 538.73, 1562.88 534.72 C 1566.12 530.71, 1567.63 528.03, 1570.40 523.28 C 1573.17 518.54, 1574.45 515.42, 1576.73 511.00 C 1579.00 506.58, 1580.39 504.04, 1581.79 501.20 C 1583.20 498.36, 1583.41 497.47, 1583.76 496.80 C 1584.12 496.12, 1583.68 496.34, 1583.57 497.82 C 1583.46 499.30, 1583.21 500.81, 1583.22 504.19 C 1583.23 507.56, 1583.46 510.32, 1583.61 514.70 C 1583.76 519.08, 1583.77 521.96, 1583.97 526.07 C 1584.16 530.18, 1584.10 532.36, 1584.59 535.24 C 1585.07 538.11, 1585.72 539.44, 1586.39 540.45 C 1587.06 541.45, 1587.52 541.36, 1587.93 540.26 C 1588.34 539.16, 1588.42 537.79, 1588.44 534.93 C 1588.47 532.06, 1588.13 529.99, 1588.05 525.93 C 1587.96 521.87, 1588.01 519.03, 1588.02 514.63 C 1588.02 510.23, 1588.41 507.48, 1588.08 503.95 C 1587.75 500.43, 1587.43 498.74, 1586.38 497.00 C 1585.34 495.26, 1584.43 494.77, 1582.84 495.23 C 1581.25 495.70, 1580.24 496.46, 1578.44 499.33 C 1576.65 502.20, 1576.00 505.10, 1573.88 509.60 C 1571.76 514.09, 1570.53 517.17, 1567.85 521.80 C 1565.16 526.43, 1563.61 529.00, 1560.47 532.74 C 1557.34 536.48, 1555.39 538.26, 1552.16 540.50 C 1548.94 542.74, 1547.36 543.33, 1544.34 543.94 C 1541.33 544.54, 1539.72 544.28, 1537.09 543.53 C 1534.46 542.78, 1533.09 542.14, 1531.18 540.19 C 1529.27 538.25, 1528.52 536.88, 1527.56 533.80 C 1526.60 530.71, 1526.27 528.66, 1526.38 524.77 C 1526.49 520.88, 1526.85 518.57, 1528.10 514.36 C 1529.36 510.15, 1530.38 507.57, 1532.64 503.73 C 1534.90 499.89, 1536.47 497.93, 1539.41 495.16 C 1542.35 492.38, 1544.09 491.21, 1547.34 489.85 C 1550.60 488.49, 1552.45 488.12, 1555.70 488.36 C 1558.95 488.60, 1560.65 489.30, 1563.59 491.05 C 1566.54 492.80, 1567.95 494.39, 1570.43 497.10 C 1572.91 499.82, 1574.13 502.00, 1575.98 504.63 C 1577.84 507.26, 1578.41 508.75, 1579.70 510.25 C 1580.98 511.75, 1581.85 512.03, 1582.39 512.14 C 1582.93 512.24, 1583.13 511.62, 1582.39 510.78 C 1581.64 509.93, 1580.60 509.13, 1578.64 507.92 C 1576.69 506.71, 1575.36 506.06, 1572.59 504.74 C 1569.82 503.43, 1568.20 502.68, 1564.79 501.34 C 1561.38 500.00, 1559.28 499.08, 1555.54 498.04 C 1551.80 497.01, 1549.88 496.63, 1546.10 496.15 C 1542.33 495.67, 1540.52 495.58, 1536.67 495.64 C 1532.82 495.69, 1530.73 495.77, 1526.85 496.43 C 1522.98 497.10, 1520.96 497.78, 1517.29 498.96 C 1513.63 500.14, 1511.87 500.88, 1508.55 502.33 C 1505.22 503.78, 1503.49 504.59, 1500.67 506.21 C 1497.86 507.83, 1496.48 508.90, 1494.47 510.44 C 1492.46 511.98, 1491.95 512.69, 1490.61 513.91 C 1489.28 515.13, 1488.68 515.52, 1487.81 516.53 C 1486.93 517.55, 1486.69 518.10, 1486.25 518.98 C 1485.81 519.87, 1485.63 520.23, 1485.62 520.96 C 1485.61 521.69, 1485.65 522.16, 1486.22 522.63 C 1486.78 523.09, 1487.74 523.29, 1488.45 523.27" style="stroke: black; fill: black;"/></svg>