<svg xmlns="http://www.w3.org/2000/svg" id="canvas" viewBox="963.638 285.409 186.606 459.782"><path d="M 1096.02,306.00 C 1096.86 304.65, 1097.78 302.52, 1096.85 299.73 C 1095.93 296.93, 1094.80 294.30, 1091.37 292.04 C 1087.94 289.78, 1085.22 288.37, 1079.71 288.41 C 1074.21 288.46, 1070.75 289.03, 1063.85 292.28 C 1056.95 295.54, 1052.76 297.95, 1045.23 304.70 C 1037.71 311.44, 1033.56 315.64, 1026.22 326.00 C 1018.88 336.37, 1014.99 342.85, 1008.54 356.53 C 1002.08 370.20, 998.57 378.25, 993.92 394.38 C 989.27 410.51, 987.14 419.35, 985.28 437.16 C 983.43 454.97, 983.37 464.89, 984.67 483.41 C 985.97 501.94, 987.48 512.10, 991.80 529.76 C 996.11 547.43, 999.11 556.70, 1006.23 571.75 C 1013.35 586.80, 1018.16 594.72, 1027.38 605.03 C 1036.60 615.34, 1042.26 619.95, 1052.32 623.31 C 1062.38 626.67, 1068.01 626.20, 1077.69 621.82 C 1087.36 617.44, 1092.68 612.34, 1100.71 601.41 C 1108.74 590.47, 1113.01 582.21, 1117.85 567.15 C 1122.69 552.09, 1124.72 542.29, 1124.90 526.11 C 1125.08 509.93, 1124.11 500.76, 1118.76 486.25 C 1113.41 471.74, 1108.50 464.44, 1098.17 453.58 C 1087.83 442.71, 1080.60 437.89, 1067.09 431.91 C 1053.58 425.94, 1044.71 424.74, 1030.61 423.68 C 1016.52 422.62, 1008.02 424.25, 996.62 426.61 C 985.23 428.97, 979.56 431.48, 973.62 435.49 C 967.69 439.49, 965.82 442.89, 966.95 446.63 C 968.08 450.37, 971.46 452.36, 979.28 454.19 C 987.11 456.03, 993.55 456.01, 1006.07 455.79 C 1018.58 455.58, 1027.21 454.38, 1041.85 453.13 C 1056.49 451.88, 1065.25 450.52, 1079.27 449.54 C 1093.30 448.57, 1100.85 447.84, 1111.96 448.24 C 1123.07 448.65, 1128.31 448.45, 1134.82 451.57 C 1141.33 454.69, 1143.05 456.57, 1144.51 463.83 C 1145.98 471.09, 1144.90 476.06, 1142.15 487.88 C 1139.41 499.70, 1136.33 507.32, 1130.80 522.94 C 1125.27 538.57, 1121.35 547.84, 1114.51 566.00 C 1107.67 584.16, 1103.37 594.79, 1096.60 613.74 C 1089.83 632.70, 1085.88 643.00, 1080.65 660.79 C 1075.42 678.58, 1073.06 687.44, 1070.45 702.68 C 1067.84 717.93, 1067.91 730.11, 1067.60 737.00 C 1067.29 743.88, 1068.09 743.93, 1068.90 737.10 C 1069.72 730.28, 1069.08 718.09, 1071.67 702.89 C 1074.26 687.70, 1076.62 678.89, 1081.83 661.14 C 1087.05 643.39, 1090.96 633.09, 1097.75 614.15 C 1104.53 595.22, 1108.85 584.61, 1115.75 566.47 C 1122.66 548.33, 1126.64 539.11, 1132.28 523.47 C 1137.93 507.84, 1141.13 500.32, 1143.97 488.31 C 1146.82 476.30, 1148.18 471.13, 1146.53 463.41 C 1144.87 455.70, 1142.61 453.14, 1135.72 449.73 C 1128.82 446.32, 1123.34 446.74, 1112.03 446.35 C 1100.72 445.96, 1093.22 446.80, 1079.15 447.78 C 1065.08 448.76, 1056.32 450.09, 1041.69 451.25 C 1027.07 452.41, 1018.41 453.47, 1006.04 453.58 C 993.66 453.69, 987.16 453.32, 979.82 451.78 C 972.48 450.23, 970.34 448.73, 969.35 445.86 C 968.36 442.99, 969.35 440.89, 974.88 437.41 C 980.41 433.94, 985.90 430.90, 997.02 428.48 C 1008.15 426.05, 1016.60 424.33, 1030.50 425.29 C 1044.39 426.24, 1053.17 427.41, 1066.49 433.27 C 1079.82 439.12, 1086.95 443.86, 1097.14 454.55 C 1107.33 465.25, 1112.17 472.43, 1117.43 486.74 C 1122.69 501.05, 1123.65 510.11, 1123.44 526.10 C 1123.22 542.08, 1121.16 551.80, 1116.34 566.66 C 1111.53 581.53, 1107.24 589.69, 1099.36 600.42 C 1091.49 611.14, 1086.29 616.01, 1076.98 620.28 C 1067.68 624.55, 1062.53 625.01, 1052.83 621.76 C 1043.13 618.51, 1037.57 614.15, 1028.49 604.04 C 1019.41 593.92, 1014.53 586.09, 1007.43 571.18 C 1000.34 556.26, 997.32 547.04, 993.01 529.47 C 988.71 511.90, 987.20 501.76, 985.91 483.33 C 984.63 464.89, 984.70 455.01, 986.58 437.30 C 988.46 419.59, 990.61 410.79, 995.29 394.78 C 999.98 378.77, 1003.50 370.76, 1010.01 357.23 C 1016.51 343.70, 1020.44 337.28, 1027.81 327.14 C 1035.18 317.01, 1039.39 312.93, 1046.86 306.56 C 1054.34 300.19, 1058.64 298.01, 1065.19 295.29 C 1071.73 292.56, 1075.08 292.59, 1079.58 292.95 C 1084.07 293.30, 1085.48 295.18, 1087.65 297.06 C 1089.82 298.95, 1089.45 300.50, 1090.45 302.37 C 1091.44 304.25, 1091.53 305.72, 1092.64 306.44 C 1093.76 307.17, 1095.18 307.34, 1096.02 306.00" style="stroke: black; fill: black;"/></svg>